<svg xmlns="http://www.w3.org/2000/svg" xmlns:xlink="http://www.w3.org/1999/xlink" width="17"
     viewBox="0 0 17 24">
    <defs>
        <path id="s0zba"
              d="M330.585 4921.699l-5.2-.955-3.665 1.685-2.837 4.275v3.667l7.56 12.53 7.218-12.53-.584-5.702z"/>
        <path id="s0zbb"
              d="M332.128 4931.84l-5.79 9.668-5.942-9.575a6.852 6.852 0 0 1-1.032-3.606c0-3.783 3.086-6.87 6.87-6.87 3.782 0 6.865 3.087 6.865 6.87 0 1.24-.34 2.456-.971 3.514zm-5.895-11.746c-4.54 0-8.232 3.693-8.232 8.233 0 1.534.424 3.03 1.228 4.33l6.536 10.53a.686.686 0 0 0 .583.325h.005a.686.686 0 0 0 .583-.333l6.37-10.634a8.223 8.223 0 0 0 1.16-4.218c0-4.54-3.693-8.233-8.233-8.233z"/>
        <path id="s0zbc"
              d="M326.233 4931.08a2.755 2.755 0 0 1-2.753-2.753 2.763 2.763 0 0 1 2.753-2.753 2.76 2.76 0 0 1 2.75 2.753 2.75 2.75 0 0 1-2.75 2.754zm0-6.87a4.121 4.121 0 0 0-4.116 4.117 4.111 4.111 0 0 0 4.116 4.117 4.109 4.109 0 0 0 4.117-4.117 4.121 4.121 0 0 0-4.117-4.116z"/>
        <path id="s0zbd" d="M328.629 4925.602l-3.096-.803-2.238 1.98v3.715l1.942.917h2.273l2.23-2.192-.374-3.299z"/>
    </defs>
    <g>
        <g opacity=".5" transform="translate(-318 -4920)">
            <use fill="#181a24" xlink:href="#s0zba"/>
            <use fill="#181a24" xlink:href="#s0zbb"/>
            <use fill="#fff" xlink:href="#s0zbc"/>
            <use fill="#fff" xlink:href="#s0zbd"/>
        </g>
    </g>
</svg>